<svg width="28" height="27" viewBox="0 0 28 27" fill="none" xmlns="http://www.w3.org/2000/svg">
<g clip-path="url(#clip0_11_13054)">
<path d="M13.6743 0H15.23V0.0131836L15.8232 0.0922852L16.3506 0.18457L16.8516 0.303223L17.2075 0.408691L17.6821 0.566895L18.0776 0.725098L18.3413 0.84375L18.6709 1.00195L19.0005 1.17334L19.3564 1.38428L19.6069 1.54248L19.8179 1.6875L20.0552 1.85889L20.2793 2.03027L20.5034 2.21484L20.7012 2.38623L20.8066 2.47852L21.0308 2.68945L21.3076 2.96631L21.3999 3.07178L21.5713 3.25635L21.6899 3.40137L21.8745 3.62549L22.0327 3.83643L22.2041 4.07373L22.3359 4.27148L22.5205 4.56152L22.6523 4.78564L22.8237 5.10205L22.9556 5.35254L23.1797 5.85352L23.3511 6.30176L23.5225 6.8291L23.6543 7.33008L23.7466 7.77832L23.8257 8.30566L23.8784 8.83301L23.8916 9.05713V9.91406L23.8652 10.3359L23.8125 10.7974L23.7466 11.2324L23.6543 11.707L23.5488 12.1685L23.417 12.6562L23.2456 13.1968L23.0874 13.6582L22.916 14.1064L22.7051 14.6206L22.5601 14.9502L22.3623 15.3853L22.2041 15.7148L22.0986 15.939L21.9668 16.1895L21.835 16.4531L21.6768 16.7432L21.4922 17.0859L21.3735 17.2837L21.2944 17.4287L21.1758 17.6396L21.0439 17.8638L20.8726 18.1538L20.6484 18.5229L20.4771 18.7998L20.3452 19.0107L20.1606 19.3008L19.8179 19.8281L19.1851 20.7773L18.9741 21.0806L18.8687 21.2388L18.7104 21.4629L18.5918 21.6343L18.4468 21.8452L18.2754 22.0957L18.104 22.333L17.9854 22.5044L17.814 22.7417L17.6426 22.9922L17.5239 23.1504L17.4053 23.3218L17.2339 23.5591L16.9175 24.0073L16.7461 24.2446L16.4297 24.6929L16.166 25.062L16.0474 25.2334L15.876 25.4707L15.7046 25.7212L15.5991 25.8794L15.3882 26.1826L15.2563 26.3804L15.1113 26.5913L14.9795 26.7627L14.874 26.855L14.7158 26.9473L14.584 27H14.2148L14.0039 26.9077L13.8325 26.7759L13.6875 26.5913L13.4766 26.2749L13.3447 26.0903L13.2393 25.9321L12.9492 25.5103L12.791 25.2861L12.6196 25.0488L12.4087 24.7456L12.2769 24.561L12.0923 24.2974L11.9209 24.0601L11.7627 23.8359L11.5913 23.5986L11.4331 23.3745L11.2617 23.1372L11.0903 22.8867L10.9453 22.689L10.7607 22.4253L10.6289 22.2407L10.4707 22.0166L10.2598 21.7134L9.96973 21.2915L9.85107 21.1201L9.70605 20.9092L9.49512 20.606L9.11279 20.0259L8.98096 19.8281L8.75684 19.4854L8.3877 18.9053L8.21631 18.6284L8.00537 18.2856L7.88672 18.0879L7.6626 17.7056L7.46484 17.3628L7.28027 17.0332L7.10889 16.73L7.0166 16.5454L6.88477 16.2949L6.7002 15.939L6.42334 15.3721L6.2124 14.8975L6.00146 14.4097L5.77734 13.8428L5.55322 13.21L5.42139 12.7881L5.28955 12.3267L5.15771 11.7861L5.05225 11.2456L4.97314 10.7314L4.92041 10.2041L4.89404 9.66357V9.30762L4.90723 8.93848L4.95996 8.3584L5.02588 7.91016L5.11816 7.42236L5.22363 7.00049L5.35547 6.56543L5.50049 6.14355L5.68506 5.69531L5.84326 5.35254L5.98828 5.0625L6.15967 4.75928L6.33105 4.46924L6.56836 4.11328L6.72656 3.88916L6.88477 3.67822L7.05615 3.46729L7.1748 3.32227L7.29346 3.19043L7.38574 3.08496L7.41211 3.04541H7.43848L7.46484 2.99268L7.93945 2.51807H7.96582V2.4917L8.07129 2.39941L8.25586 2.24121L8.42725 2.09619L8.77002 1.83252L8.99414 1.67432L9.23145 1.51611L9.52148 1.33154L9.89062 1.12061L10.2993 0.909668L10.563 0.791016L10.8794 0.65918L11.2617 0.51416L11.6704 0.382324L12.1582 0.250488L12.5933 0.158203L13.0547 0.0791016L13.4502 0.0263672L13.6743 0ZM14.3071 1.58203L13.9248 1.59521L13.4634 1.63477L13.0151 1.70068L12.5669 1.79297L12.1714 1.89844L11.6968 2.05664L11.3276 2.20166L10.9189 2.38623L10.6685 2.51807L10.3389 2.70264L10.0752 2.87402L9.91699 2.97949L9.69287 3.1377L9.48193 3.30908L9.29736 3.4541L9.15234 3.58594L9.04688 3.67822L8.94141 3.78369L8.88867 3.82324V3.84961L8.83594 3.87598L8.73047 3.98145V4.00781H8.7041L8.61182 4.11328L8.44043 4.29785L8.32178 4.44287L8.18994 4.60107L8.01855 4.8252L7.83398 5.08887L7.64941 5.37891L7.51758 5.60303L7.34619 5.91943L7.1748 6.27539L7.06934 6.52588L6.92432 6.9082L6.79248 7.33008L6.67383 7.80469L6.59473 8.2002L6.52881 8.71436L6.50244 9.07031L6.48926 9.54492L6.51562 10.1118L6.56836 10.6128L6.66064 11.1797L6.7793 11.707L6.92432 12.2476L7.0957 12.7881L7.31982 13.4077L7.51758 13.8955L7.68896 14.291L7.8999 14.7524L8.20312 15.3721L8.41406 15.7808L8.53271 15.9917L8.61182 16.1367L8.80957 16.5059L9.17871 17.1387L9.33691 17.4023L9.52148 17.7056L9.73242 18.0483L9.85107 18.2329L10.0093 18.4834L10.2334 18.8262L10.3521 19.0107L10.7212 19.5645L10.8926 19.8149L11.1431 20.1841L11.3145 20.4346L11.4595 20.6455L11.6177 20.8696L11.7891 21.1201L11.9604 21.3574L12.145 21.6211L12.4614 22.0693L12.6328 22.3066L12.9492 22.7549L13.1206 22.9922L13.2788 23.2163L13.4502 23.4536L13.6348 23.7173L13.8062 23.9546L13.9775 24.2051L14.1226 24.4028L14.2412 24.5742L14.3467 24.7192L14.3862 24.772L14.4258 24.7588L14.7422 24.3105L14.9136 24.0601L14.9927 23.9546L15.1245 23.77L15.2827 23.5459L15.8101 22.8076L16.1265 22.3594L16.2979 22.1221L16.4297 21.9375L16.7461 21.4893L17.0229 21.0938L17.1812 20.8696L17.3921 20.5664L17.6162 20.2368L17.7612 20.0259L17.9854 19.6963L18.1831 19.4062L18.46 18.9844L18.6841 18.6416L18.8291 18.4175L19.0269 18.1011L19.1851 17.8506L19.6333 17.1123L20.0024 16.4663L20.187 16.1367L20.3452 15.8467L20.6089 15.3325L20.7275 15.1084L20.8989 14.7393L21.0439 14.436L21.2549 13.9482L21.4131 13.5659L21.6108 13.0386L21.7822 12.5376L21.9404 11.9971L22.0723 11.4697L22.1646 11.0083L22.2437 10.4941L22.2832 10.0591L22.2964 9.83496V9.14941L22.2568 8.63525L22.2041 8.23975L22.1382 7.87061L22.0327 7.42236L21.8877 6.96094L21.7954 6.69727L21.6504 6.34131L21.479 5.97217L21.3208 5.66895L21.1099 5.31299L20.8462 4.91748L20.6616 4.66699L20.4902 4.45605L20.3716 4.31104L20.1738 4.1001L20.0815 3.99463L19.8311 3.74414L19.7256 3.65186L19.541 3.48047L19.3564 3.33545L19.1455 3.16406L18.895 2.99268L18.75 2.88721L18.5391 2.75537L18.249 2.58398L17.9062 2.39941L17.4712 2.20166L17.0361 2.03027L16.667 1.91162L16.166 1.77979L15.7046 1.6875L15.1904 1.62158L14.8213 1.59521L14.3071 1.58203Z" fill="#787878"/>
<path d="M14.2017 4.73291H14.584L14.9399 4.75928L15.2959 4.81201L15.6782 4.9043L16.1133 5.04932L16.4165 5.18115L16.7065 5.32617L16.9834 5.49756L17.1943 5.64258L17.3657 5.77441L17.5371 5.91943L17.6953 6.06445L17.9326 6.30176L18.1699 6.5918L18.3413 6.8291L18.4995 7.07959L18.6709 7.396L18.8027 7.68604L18.9346 8.04199L19.04 8.4375L19.106 8.79346L19.1323 8.99121L19.1455 9.1626V9.82178L19.106 10.1777L19.04 10.5469L18.9478 10.8896L18.8291 11.2324L18.6841 11.562L18.5391 11.8389L18.3677 12.1157L18.2358 12.3003L18.0645 12.5244L17.9458 12.6562L17.9326 12.6826H17.9062L17.8799 12.7354L17.6426 12.9727L17.5371 13.0649L17.3657 13.21L17.1548 13.3682L16.957 13.5L16.7593 13.6187L16.5483 13.7373L16.2319 13.8823L15.876 14.0142L15.5464 14.1064L15.1509 14.1855L14.8477 14.2251L14.6763 14.2383H14.1094L13.8062 14.2119L13.4106 14.146L13.147 14.0801L12.8042 13.9746L12.4219 13.8164L12.1055 13.6582L11.8813 13.5264L11.7231 13.4209L11.5781 13.3154L11.4067 13.1836L11.2222 13.0254L11.0508 12.8672L10.9321 12.7485L10.8398 12.6431L10.6816 12.4585L10.4839 12.1948L10.2993 11.9048L10.1675 11.6675L10.0225 11.3643L9.89062 11.0215L9.79834 10.7183L9.73242 10.4414L9.6665 10.0195L9.64014 9.68994V9.29443L9.6665 8.96484L9.71924 8.60889L9.81152 8.21338L9.96973 7.73877L10.1147 7.42236L10.2861 7.09277L10.4443 6.84229L10.6157 6.60498L10.8003 6.38086L10.9453 6.22266L10.998 6.15674H11.0244L11.0508 6.104L11.1562 6.01172L11.3408 5.84033L11.5649 5.66895L11.7891 5.51074L12.0264 5.36572L12.2637 5.23389L12.5142 5.11523L12.8965 4.97021L13.2656 4.86475L13.6743 4.78564L14.0039 4.74609L14.2017 4.73291ZM14.3071 6.32812L13.9775 6.35449L13.6875 6.40723L13.3711 6.49951L13.1074 6.60498L12.8965 6.71045L12.7119 6.81592L12.4878 6.97412L12.3164 7.11914L12.1318 7.29053L12.0396 7.396L11.9209 7.52783L11.7891 7.7124L11.6177 7.98926L11.4727 8.29248L11.354 8.64844L11.2881 8.91211L11.2485 9.2417L11.2354 9.55811L11.2617 9.87451L11.3145 10.1777L11.3936 10.4678L11.4858 10.7183L11.6309 11.0215L11.7891 11.272L11.9473 11.4829L12.0923 11.6411L12.1846 11.7466L12.3428 11.8916L12.5801 12.0762L12.8569 12.2476L13.0679 12.353L13.2129 12.4189L13.5161 12.5244L13.7798 12.5903L14.0435 12.6299L14.1753 12.6431H14.6235L14.9399 12.6035L15.2695 12.5244L15.5464 12.4321L15.7837 12.3267L16.0078 12.208L16.2451 12.0498L16.4297 11.9048L16.5615 11.7861L16.7856 11.562L16.9307 11.3774L17.0625 11.1929L17.2207 10.916L17.3394 10.6523L17.458 10.2832L17.4976 10.125L17.5371 9.86133L17.5503 9.71631V9.28125L17.5107 8.95166L17.4316 8.60889L17.3262 8.30566L17.1812 7.98926L17.0229 7.72559L16.8647 7.51465L16.7461 7.38281L16.6538 7.27734L16.522 7.14551L16.377 7.02686L16.2056 6.89502L15.9287 6.72363L15.6387 6.57861L15.3091 6.45996L14.9663 6.38086L14.6763 6.34131L14.4785 6.32812H14.3071Z" fill="#787878"/>
</g>
<defs>
<clipPath id="clip0_11_13054">
<rect width="27" height="27" fill="white" transform="translate(0.899414)"/>
</clipPath>
</defs>
</svg>
